<svg xmlns="http://www.w3.org/2000/svg" width="90.878" height="90.878" viewBox="0 0 90.878 90.878"><defs><style>.a{fill-rule:evenodd;}</style></defs><g transform="translate(0)"><path class="a" d="M45.439,15.146a3.029,3.029,0,1,0-3.029-3.029,3.032,3.032,0,0,0,3.029,3.029Zm-9.088-3.029c0,3.175,2.776,7.731,4.242,9.7l4.845,6.056,4.876-6.095c1.459-1.669,4.212-6.525,4.212-9.656a9.088,9.088,0,0,0-18.176,0ZM38.2,23.666c-.527-.7-4.876-6.67-4.876-11.549a12.117,12.117,0,1,1,24.234,0c0,4.173-3.256,9.7-4.92,11.6l-6.015,7.523a1.516,1.516,0,0,1-2.366,0ZM62.1,83.3a1.514,1.514,0,0,0,1.515-1.515V60.213l20.107-5.743a1.515,1.515,0,0,0-.833-2.914l-21.2,6.059a1.517,1.517,0,0,0-1.1,1.457V81.79A1.514,1.514,0,0,0,62.1,83.3ZM56.041,81.79a1.514,1.514,0,0,0,1.515-1.515v-21.2a1.512,1.512,0,0,0-1.031-1.434l-21.2-7.148a1.514,1.514,0,1,0-.966,2.87l20.173,6.8V80.276a1.514,1.514,0,0,0,1.515,1.515ZM22.285,40.959,7.138,45.5a1.515,1.515,0,0,0,.435,2.966,1.549,1.549,0,0,0,.435-.064l15.146-4.544a1.515,1.515,0,0,0-.869-2.9Zm6.493-28.842a1.514,1.514,0,0,0-1.515,1.515V40.9A1.511,1.511,0,0,0,28.3,42.331l27.263,9.088a1.488,1.488,0,0,0,.479.079,1.514,1.514,0,0,0,1.515-1.515V27.263a1.515,1.515,0,1,0-3.029,0V47.881L30.293,39.8V13.632a1.514,1.514,0,0,0-1.515-1.515Zm59.1,1.374a5.872,5.872,0,0,0-4.991-1.316l-21.2,6.059a1.517,1.517,0,0,0-1.1,1.457V49.983a1.515,1.515,0,0,0,1.931,1.457l21.2-6.059a1.515,1.515,0,0,0-.833-2.914L63.615,47.974V20.832l20-5.718a2.935,2.935,0,0,1,2.352.727,5.176,5.176,0,0,1,1.883,3.849V77.246c0,1.99-1.51,3.376-4.96,4.6L62.156,87.771,30.293,76.186v-26.2a1.515,1.515,0,0,0-1.931-1.457l-21.2,6.059A1.515,1.515,0,0,0,7.99,57.5l19.274-5.507V77.246a1.511,1.511,0,0,0,1,1.422L61.582,90.786a1.525,1.525,0,0,0,.518.092,1.561,1.561,0,0,0,.417-.058l21.294-6.089c1.933-.685,7.067-2.505,7.067-7.485V19.69a8.211,8.211,0,0,0-3-6.2ZM24.171,78.563a1.516,1.516,0,0,1-1.041,1.872L7.99,84.762a5.442,5.442,0,0,1-1.483.209A5.552,5.552,0,0,1,3.138,83.8,8.426,8.426,0,0,1,0,77.246V19.69c0-4.98,5.135-6.8,7.067-7.485L28.362,6.116a1.515,1.515,0,0,1,.833,2.914L7.99,15.089c-3.45,1.225-4.96,2.611-4.96,4.6V77.246A5.454,5.454,0,0,0,4.965,81.38a2.412,2.412,0,0,0,2.2.468L22.3,77.522a1.521,1.521,0,0,1,1.874,1.041Z" transform="translate(0)"/></g></svg>